<?xml version="1.0" encoding="UTF-8"?>
<svg width="32" height="32" viewBox="0 0 32 32" fill="none" xmlns="http://www.w3.org/2000/svg">
  <!-- Background -->
  <rect width="32" height="32" rx="8" fill="#18181B"/>
  <!-- Letters -->
  <path d="M10 8C10 7.44772 10.4477 7 11 7H19C21.7614 7 24 9.23858 24 12C24 13.3613 23.4014 14.5744 22.4544 15.4384C23.9107 16.2229 25 17.7633 25 19.5C25 22.5376 22.5376 25 19.5 25H11C10.4477 25 10 24.5523 10 24V8Z" fill="#27272A"/>
  <path d="M13 10V22H19.5C20.8807 22 22 20.8807 22 19.5C22 18.1193 20.8807 17 19.5 17H18C17.4477 17 17 16.5523 17 16C17 15.4477 17.4477 15 18 15H19C20.1046 15 21 14.1046 21 13C21 11.8954 20.1046 11 19 11H13" fill="#52525B"/>
  <path d="M13 10V22H19.5C20.8807 22 22 20.8807 22 19.5C22 18.1193 20.8807 17 19.5 17H18M13 10H19C20.1046 10 21 10.8954 21 12C21 13.1046 20.1046 14 19 14H18M13 10V14H18" stroke="white" stroke-width="1.5" stroke-linecap="round" stroke-linejoin="round"/>
</svg> 
